<svg xmlns="http://www.w3.org/2000/svg" viewBox="0 0 300 300" width="100%" height="100%">
  <defs>
    <linearGradient id="sunGradient" x1="0%" y1="0%" x2="0%" y2="100%">
      <stop offset="0%" stop-color="#F39C12"/>
      <stop offset="100%" stop-color="#D35400"/>
    </linearGradient>
    <style>
      .title { font-family: 'Segoe UI', system-ui, sans-serif; font-weight: 800; font-size: 28px; fill: #2C3E50; text-anchor: middle; letter-spacing: 1px; }
      .accent { fill: #E67E22; }
    </style>
  </defs>

  <circle cx="150" cy="120" r="90" fill="url(#sunGradient)" />

  <path d="M 80 120 L 100 90 L 120 120 L 140 90 L 160 120 L 180 90 L 200 120 L 220 90" stroke="#FFF" stroke-width="3" fill="none" opacity="0.3" stroke-linejoin="round"/>
  <path d="M 80 140 L 100 110 L 120 140 L 140 110 L 160 140 L 180 110 L 200 140 L 220 110" stroke="#FFF" stroke-width="3" fill="none" opacity="0.3" stroke-linejoin="round"/>

  <path d="M 40 170 L 260 170 L 300 220 L 0 220 Z" fill="#34495E" />
  <path d="M 150 170 L 150 220" stroke="#F1C40F" stroke-width="4" stroke-dasharray="12, 12" />

  <rect x="70" y="80" width="20" height="90" rx="3" fill="#2C3E50" />
  <rect x="210" y="80" width="20" height="90" rx="3" fill="#2C3E50" />
  <path d="M 60 90 Q 150 40 240 90" stroke="#2C3E50" stroke-width="12" fill="none" stroke-linecap="round"/>
  
  <rect x="130" y="140" width="100" height="10" rx="4" fill="#E74C3C" transform="rotate(-20 130 140)" />
  <rect x="150" y="140" width="15" height="10" fill="#ECF0F1" transform="rotate(-20 130 140)" />
  <rect x="180" y="140" width="15" height="10" fill="#ECF0F1" transform="rotate(-20 130 140)" />
  <rect x="210" y="140" width="15" height="10" fill="#ECF0F1" transform="rotate(-20 130 140)" />

  <rect x="120" y="135" width="15" height="35" rx="2" fill="#7F8C8D" />
  <circle cx="127.5" cy="142" r="3" fill="#2ECC71" /> <text x="150" y="260" class="title">PÉAGE BRIDGE</text>
  <circle cx="150" cy="275" r="4" class="accent" />
</svg>
